<svg id="visual" viewBox="0 0 1900 1200" width="1900" height="1200" xmlns="http://www.w3.org/2000/svg" xmlns:xlink="http://www.w3.org/1999/xlink" version="1.1"><path d="M0 313L21.2 311C42.3 309 84.7 305 126.8 275C169 245 211 189 253.2 169C295.3 149 337.7 165 380 183C422.3 201 464.7 221 506.8 231C549 241 591 241 633.2 229C675.3 217 717.7 193 760 175C802.3 157 844.7 145 886.8 137C929 129 971 125 1013.2 163C1055.3 201 1097.7 281 1140 297C1182.3 313 1224.7 265 1266.8 215C1309 165 1351 113 1393.2 109C1435.3 105 1477.7 149 1520 179C1562.3 209 1604.7 225 1646.8 225C1689 225 1731 209 1773.2 181C1815.3 153 1857.7 113 1878.8 93L1900 73L1900 0L1878.8 0C1857.7 0 1815.3 0 1773.2 0C1731 0 1689 0 1646.8 0C1604.7 0 1562.3 0 1520 0C1477.7 0 1435.3 0 1393.2 0C1351 0 1309 0 1266.8 0C1224.7 0 1182.3 0 1140 0C1097.7 0 1055.3 0 1013.2 0C971 0 929 0 886.8 0C844.7 0 802.3 0 760 0C717.7 0 675.3 0 633.2 0C591 0 549 0 506.8 0C464.7 0 422.3 0 380 0C337.7 0 295.3 0 253.2 0C211 0 169 0 126.8 0C84.7 0 42.3 0 21.2 0L0 0Z" fill="#0e063d"></path><path d="M0 409L21.2 395C42.3 381 84.7 353 126.8 339C169 325 211 325 253.2 345C295.3 365 337.7 405 380 415C422.3 425 464.7 405 506.8 417C549 429 591 473 633.2 463C675.3 453 717.7 389 760 347C802.3 305 844.7 285 886.8 287C929 289 971 313 1013.2 341C1055.3 369 1097.7 401 1140 419C1182.3 437 1224.7 441 1266.8 387C1309 333 1351 221 1393.2 197C1435.3 173 1477.7 237 1520 277C1562.3 317 1604.7 333 1646.8 365C1689 397 1731 445 1773.2 435C1815.3 425 1857.7 357 1878.8 323L1900 289L1900 71L1878.8 91C1857.7 111 1815.3 151 1773.2 179C1731 207 1689 223 1646.8 223C1604.7 223 1562.3 207 1520 177C1477.7 147 1435.3 103 1393.2 107C1351 111 1309 163 1266.8 213C1224.7 263 1182.3 311 1140 295C1097.7 279 1055.3 199 1013.2 161C971 123 929 127 886.8 135C844.7 143 802.3 155 760 173C717.7 191 675.3 215 633.2 227C591 239 549 239 506.8 229C464.7 219 422.3 199 380 181C337.7 163 295.3 147 253.2 167C211 187 169 243 126.8 273C84.7 303 42.3 307 21.2 309L0 311Z" fill="#260132"></path><path d="M0 625L21.2 631C42.3 637 84.7 649 126.8 635C169 621 211 581 253.2 571C295.3 561 337.7 581 380 591C422.3 601 464.7 601 506.8 661C549 721 591 841 633.2 831C675.3 821 717.7 681 760 653C802.3 625 844.7 709 886.8 745C929 781 971 769 1013.2 795C1055.3 821 1097.7 885 1140 877C1182.3 869 1224.7 789 1266.8 709C1309 629 1351 549 1393.2 565C1435.3 581 1477.7 693 1520 713C1562.3 733 1604.7 661 1646.8 685C1689 709 1731 829 1773.2 819C1815.3 809 1857.7 669 1878.8 599L1900 529L1900 287L1878.8 321C1857.7 355 1815.3 423 1773.2 433C1731 443 1689 395 1646.8 363C1604.7 331 1562.3 315 1520 275C1477.7 235 1435.3 171 1393.2 195C1351 219 1309 331 1266.8 385C1224.7 439 1182.3 435 1140 417C1097.7 399 1055.3 367 1013.2 339C971 311 929 287 886.8 285C844.7 283 802.3 303 760 345C717.7 387 675.3 451 633.2 461C591 471 549 427 506.8 415C464.7 403 422.3 423 380 413C337.7 403 295.3 363 253.2 343C211 323 169 323 126.8 337C84.7 351 42.3 379 21.2 393L0 407Z" fill="#300026"></path><path d="M0 781L21.2 769C42.3 757 84.7 733 126.8 697C169 661 211 613 253.2 607C295.3 601 337.7 637 380 645C422.3 653 464.7 633 506.8 707C549 781 591 949 633.2 959C675.3 969 717.7 821 760 799C802.3 777 844.7 881 886.8 903C929 925 971 865 1013.2 863C1055.3 861 1097.7 917 1140 919C1182.3 921 1224.7 869 1266.8 809C1309 749 1351 681 1393.2 689C1435.3 697 1477.7 781 1520 807C1562.3 833 1604.7 801 1646.8 817C1689 833 1731 897 1773.2 863C1815.3 829 1857.7 697 1878.8 631L1900 565L1900 527L1878.8 597C1857.7 667 1815.3 807 1773.2 817C1731 827 1689 707 1646.8 683C1604.7 659 1562.3 731 1520 711C1477.7 691 1435.3 579 1393.2 563C1351 547 1309 627 1266.8 707C1224.7 787 1182.3 867 1140 875C1097.7 883 1055.3 819 1013.2 793C971 767 929 779 886.8 743C844.7 707 802.3 623 760 651C717.7 679 675.3 819 633.2 829C591 839 549 719 506.8 659C464.7 599 422.3 599 380 589C337.7 579 295.3 559 253.2 569C211 579 169 619 126.8 633C84.7 647 42.3 635 21.2 629L0 623Z" fill="#35001c"></path><path d="M0 1105L21.2 1093C42.3 1081 84.7 1057 126.8 1039C169 1021 211 1009 253.2 1031C295.3 1053 337.7 1109 380 1117C422.3 1125 464.7 1085 506.8 1085C549 1085 591 1125 633.2 1139C675.3 1153 717.7 1141 760 1125C802.3 1109 844.7 1089 886.8 1075C929 1061 971 1053 1013.2 1069C1055.3 1085 1097.7 1125 1140 1141C1182.3 1157 1224.7 1149 1266.8 1139C1309 1129 1351 1117 1393.2 1103C1435.3 1089 1477.7 1073 1520 1063C1562.3 1053 1604.7 1049 1646.8 1069C1689 1089 1731 1133 1773.2 1149C1815.3 1165 1857.7 1153 1878.8 1147L1900 1141L1900 563L1878.8 629C1857.7 695 1815.3 827 1773.2 861C1731 895 1689 831 1646.8 815C1604.7 799 1562.3 831 1520 805C1477.7 779 1435.3 695 1393.2 687C1351 679 1309 747 1266.8 807C1224.7 867 1182.3 919 1140 917C1097.7 915 1055.3 859 1013.2 861C971 863 929 923 886.8 901C844.7 879 802.3 775 760 797C717.7 819 675.3 967 633.2 957C591 947 549 779 506.8 705C464.7 631 422.3 651 380 643C337.7 635 295.3 599 253.2 605C211 611 169 659 126.8 695C84.7 731 42.3 755 21.2 767L0 779Z" fill="#360011"></path><path d="M0 1201L21.2 1201C42.3 1201 84.7 1201 126.8 1201C169 1201 211 1201 253.2 1201C295.3 1201 337.7 1201 380 1201C422.3 1201 464.7 1201 506.8 1201C549 1201 591 1201 633.2 1201C675.3 1201 717.7 1201 760 1201C802.3 1201 844.7 1201 886.8 1201C929 1201 971 1201 1013.2 1201C1055.3 1201 1097.7 1201 1140 1201C1182.3 1201 1224.7 1201 1266.8 1201C1309 1201 1351 1201 1393.2 1201C1435.3 1201 1477.7 1201 1520 1201C1562.3 1201 1604.7 1201 1646.8 1201C1689 1201 1731 1201 1773.2 1201C1815.3 1201 1857.7 1201 1878.8 1201L1900 1201L1900 1139L1878.8 1145C1857.7 1151 1815.3 1163 1773.2 1147C1731 1131 1689 1087 1646.8 1067C1604.7 1047 1562.3 1051 1520 1061C1477.7 1071 1435.3 1087 1393.2 1101C1351 1115 1309 1127 1266.8 1137C1224.7 1147 1182.3 1155 1140 1139C1097.7 1123 1055.3 1083 1013.2 1067C971 1051 929 1059 886.8 1073C844.7 1087 802.3 1107 760 1123C717.7 1139 675.3 1151 633.2 1137C591 1123 549 1083 506.8 1083C464.7 1083 422.3 1123 380 1115C337.7 1107 295.3 1051 253.2 1029C211 1007 169 1019 126.8 1037C84.7 1055 42.3 1079 21.2 1091L0 1103Z" fill="#350202"></path></svg>